<svg id="Calque_1" data-name="Calque 1" xmlns="http://www.w3.org/2000/svg" viewBox="0 0 105 105"><defs><style>.cls-1{fill:#fff;}.cls-2{fill:#00d405;}</style></defs><circle cx="52.5" cy="52.5" r="52.5"/><path class="cls-1" d="M43,16.28l-1-6,1.11-.18,1,5.85c.25,1.51,1.2,2,2.66,1.76a2,2,0,0,0,1.87-2.52l-1-5.85,1.11-.19,1,6c.36,2.13-1,3.23-2.88,3.55S43.31,18.41,43,16.28Z"/><path class="cls-1" d="M53.92,13.54,51.27,9l1.3.07,2,3.68h0l2.43-3.46,1.24.06-3.14,4.23,2.78,4.7-1.35-.07-2.11-3.87h0L51.87,18,50.6,18Z"/><path class="cls-1" d="M61.1,16,63,10.3l1.07.36-1.88,5.63c-.49,1.45.12,2.34,1.52,2.81a2,2,0,0,0,2.84-1.35l1.88-5.63,1.07.36L67.6,18.22c-.69,2.05-2.39,2.39-4.21,1.78S60.42,18.09,61.1,16Z"/><path class="cls-1" d="M71.8,13.67l1,.52-4.09,8-1-.51Z"/><path class="cls-1" d="M77.23,16.73l2.52,2.06c2.09,1.7,1.92,3.92.23,6s-3.86,2.58-6,.88l-2.45-2Zm-2.6,8.14c1.63,1.33,3.13.81,4.46-.81s1.65-3.21,0-4.54L77.49,18.2l-4.41,5.41Z"/><path class="cls-1" d="M84.75,23.39l3.9,5-.78.61-3.2-4.09-2.22,1.74,2.9,3.72-.75.58-2.9-3.71-2.47,1.94,3.29,4.2L81.7,34l-4-5.09Z"/><path class="cls-1" d="M84.54,32.8l.48,1c-1.29.8-1.59,2-.85,3.49.54,1.11,1.44,1.66,2.44,1.17s.89-1.63.5-3.22-.57-3,1-3.72c1.32-.65,2.66.06,3.45,1.69,1,2,.37,3.34-1,4.27L90,36.52a2.07,2.07,0,0,0,.71-2.91c-.53-1.09-1.35-1.58-2.18-1.18s-.74,1.48-.39,2.79c.45,1.72.77,3.33-1,4.22-1.5.73-2.94-.08-3.79-1.81C82.24,35.37,83,33.68,84.54,32.8Z"/><path class="cls-1" d="M93.64,38.83,94,39.9l-8.52,2.7-.34-1.07Z"/><path class="cls-1" d="M88.12,50.29v0a3.23,3.23,0,0,1-1.74-2.56c-.35-2.49,1.3-4.43,4-4.81s4.85.81,5.24,3.6a3.34,3.34,0,0,1-2.33,4l-.17-1.15a2.29,2.29,0,0,0,1.53-2.74c-.3-2.13-2-2.87-4.11-2.57S87.1,45.8,87.35,47.6a2.53,2.53,0,0,0,3.1,2.28l.21,0-.38-2.66,1-.13.54,3.77-4.68.66-.1-.71Z"/><path class="cls-1" d="M96,53.45l-.12,1.18-6.59,3.42a12.62,12.62,0,0,1-1.21.53v0l7.33.74-.11,1-8.89-.91.12-1.14L93.1,54.9c.46-.24,1.17-.55,1.17-.55v0L87,53.59l.11-1.05Z"/><path class="cls-1" d="M94.54,63.51l-2,6-.93-.31,1.66-4.92-2.67-.9-1.52,4.46-.9-.31,1.52-4.46-3-1L85,67.1l-1-.33,2.07-6.13Z"/><path class="cls-1" d="M91.26,72.18l-2.17,3.56a2.42,2.42,0,0,1-3.46,1,2.12,2.12,0,0,1-1.08-2.48l0,0c-.75.61-1.43.54-2.61-.08s-1.67-.72-1.85-.64l0,0,.63-1c.24-.07.54.07,1.88.76,1.16.61,1.83.4,2.45-.63l1.3-2.12L83,68.5l.58-1ZM87,70.93,85.67,73.2a1.59,1.59,0,0,0,.43,2.45c.93.56,1.65.42,2.34-.7l1.4-2.32Z"/><path class="cls-1" d="M79.77,79.47l-2.46,2.28-.63-.68,2.46-2.28Z"/><path class="cls-1" d="M75,89.63l-5.37,2.81-.46-.87,4.38-2.29-1.3-2.47-3.64,1.9-.44-.84L71.85,86,69.9,82.23l1-.52Z"/><path class="cls-1" d="M67.24,93.39l-4,1.12A2.42,2.42,0,0,1,60,92.86a2.12,2.12,0,0,1,.9-2.55v0c-1-.06-1.41-.59-1.85-1.84s-.72-1.67-.91-1.73v0l1.17-.33c.22.11.35.43.85,1.84.43,1.24,1.06,1.55,2.22,1.23l2.39-.67-1-3.63,1.09-.3ZM65,89.6l-2.56.71c-1.2.33-1.64,1.1-1.37,2.08s.92,1.44,2.19,1.09l2.61-.72Z"/><path class="cls-1" d="M57.9,91.25C58,93.93,56.35,96,53.65,96s-4.43-1.87-4.49-4.54,1.55-4.71,4.25-4.78S57.83,88.58,57.9,91.25Zm-7.59.2c0,2.1,1.21,3.65,3.31,3.6s3.19-1.67,3.13-3.77-1.21-3.64-3.31-3.59S50.25,89.35,50.31,91.45Z"/><path class="cls-1" d="M46.23,95.54l-1.16-.27-2.59-7c-.19-.52-.38-1.27-.38-1.27h0l-1.63,7.18-1-.24,2-8.71,1.12.25,2.62,7c.18.5.39,1.24.39,1.24h0l1.63-7.15,1,.23Z"/><path class="cls-1" d="M36.92,93.11,30.55,90l.43-.89,2.68,1.29,3.44-7.16,1,.49-3.45,7.16,2.68,1.29Z"/><path class="cls-1" d="M26.4,87.27,24,85.12c-2-1.78-1.76-4,0-6s4-2.42,6-.64l2.37,2.09Zm2.91-8c-1.57-1.39-3.09-.93-4.48.64s-1.77,3.14-.2,4.53l1.57,1.38,4.61-5.23Z"/><path class="cls-1" d="M19.14,80.33l-3.7-5.11.8-.58,3,4.2,2.29-1.65L18.8,73.37l.78-.56,2.76,3.82,2.54-1.84-3.13-4.32.84-.61,3.79,5.24Z"/><path class="cls-1" d="M14.3,73.32l-.49-1.11L19,67.52c.33-.29,1-.8,1-.8v0s-.82.13-1.24.16l-7,.68-.47-1.08,9.44-.71.5,1.13Z"/><path class="cls-1" d="M10.63,64.15,9.37,58l1-.2,1,5.09,2.77-.56-.93-4.62.93-.19.93,4.62,3.08-.63-1.06-5.23,1-.21,1.29,6.34Z"/><path class="cls-1" d="M9.2,55.32V54.2l7.89-.13L17,49.39l1,0,.09,5.81Z"/><path class="cls-1" d="M13.57,48.59C11,48,9.36,46,9.93,43.33s2.86-3.86,5.47-3.3,4.21,2.62,3.65,5.26S16.18,49.15,13.57,48.59Zm1.59-7.43c-2.05-.44-3.84.32-4.28,2.38s.88,3.48,2.93,3.93,3.83-.33,4.27-2.39S17.22,41.6,15.16,41.16Z"/><path class="cls-1" d="M12.17,36.34,13.78,33a2.66,2.66,0,0,1,1.7-1.53,2.6,2.6,0,0,1,1.8.19c1.47.71,1.95,2,1.11,3.75l-1.06,2.19,3.38,1.63-.49,1Zm4.33.85,1-2.12a1.6,1.6,0,0,0-.69-2.4,1.55,1.55,0,0,0-2.26.91l-1.05,2.17Z"/><path class="cls-1" d="M16.32,28.43l3.87-5L21,24l-3.18,4.1L20,29.87l2.88-3.73.75.59-2.88,3.72,2.48,1.92,3.27-4.22.82.63-4,5.12Z"/><path class="cls-1" d="M22.23,21.3l3.21-2.67a2.42,2.42,0,0,1,3.6.19,2.12,2.12,0,0,1,.22,2.69l0,0c.91-.33,1.53,0,2.44.92s1.35,1.22,1.55,1.21l0,0-.93.77c-.25,0-.5-.24-1.53-1.33s-1.61-1-2.53-.2l-1.91,1.6,2.42,2.9-.87.72Zm3.59,2.55,2-1.7a1.6,1.6,0,0,0,.39-2.46c-.7-.84-1.44-.94-2.44-.1l-2.09,1.74Z"/><path class="cls-1" d="M35.46,18.13l3.07-1.36.37.85L35.84,19Z"/><circle class="cls-2" cx="52.5" cy="52.5" r="4.42"/></svg>